<svg xmlns="http://www.w3.org/2000/svg" viewBox="0 0 32 32"><path fill="#41d1ff" d="M29.88 6.15 17.1 29.02a.7.7 0 0 1-1.23 0L2.12 6.15a.7.7 0 0 1 .72-1.04l13.03 2.33a.7.7 0 0 0 .25 0l12.76-2.32a.7.7 0 0 1 .72 1.03z"/><path fill="#ffea83" d="M22.7 3.4 13.24 5.25a.35.35 0 0 0-.28.32l-.58 9.83a.35.35 0 0 0 .43.36l2.63-.6a.35.35 0 0 1 .42.4l-.78 3.83a.35.35 0 0 0 .44.4l1.63-.49a.35.35 0 0 1 .44.41l-1.25 6.03c-.08.4.45.62.68.28l.15-.24 7.75-15.46a.35.35 0 0 0-.38-.5l-2.7.52a.35.35 0 0 1-.42-.42l1.77-6.13a.35.35 0 0 0-.42-.43z"/></svg>
